<mxfile host="app.diagrams.net" modified="2020-06-26T01:39:20.938Z" agent="5.0 (Macintosh)" etag="GCzPR4hvy22NdFE_YkKM" version="13.3.4" type="github">
  <diagram id="LsalG60jrKpmimVwwgA0" name="人脸识别">
    <mxGraphModel dx="782" dy="432" grid="1" gridSize="10" guides="1" tooltips="1" connect="1" arrows="1" fold="1" page="1" pageScale="1" pageWidth="827" pageHeight="1169" math="0" shadow="0">
      <root>
        <mxCell id="0" />
        <mxCell id="1" parent="0" />
        <mxCell id="v99Gg7eSHK0nsumkTFYq-5" style="edgeStyle=orthogonalEdgeStyle;rounded=0;orthogonalLoop=1;jettySize=auto;html=1;entryX=0;entryY=0.5;entryDx=0;entryDy=0;" parent="1" target="v99Gg7eSHK0nsumkTFYq-3" edge="1">
          <mxGeometry relative="1" as="geometry">
            <mxPoint x="120" y="180" as="sourcePoint" />
          </mxGeometry>
        </mxCell>
        <mxCell id="v99Gg7eSHK0nsumkTFYq-7" value="" style="edgeStyle=orthogonalEdgeStyle;rounded=0;orthogonalLoop=1;jettySize=auto;html=1;" parent="1" source="v99Gg7eSHK0nsumkTFYq-3" target="v99Gg7eSHK0nsumkTFYq-6" edge="1">
          <mxGeometry relative="1" as="geometry" />
        </mxCell>
        <mxCell id="v99Gg7eSHK0nsumkTFYq-3" value="抽帧" style="shape=ext;rounded=1;html=1;whiteSpace=wrap;" parent="1" vertex="1">
          <mxGeometry x="180" y="140" width="120" height="80" as="geometry" />
        </mxCell>
        <mxCell id="v99Gg7eSHK0nsumkTFYq-9" value="" style="edgeStyle=orthogonalEdgeStyle;rounded=0;orthogonalLoop=1;jettySize=auto;html=1;" parent="1" source="v99Gg7eSHK0nsumkTFYq-6" target="v99Gg7eSHK0nsumkTFYq-8" edge="1">
          <mxGeometry relative="1" as="geometry" />
        </mxCell>
        <mxCell id="v99Gg7eSHK0nsumkTFYq-6" value="1级结构化：人体识别" style="shape=ext;rounded=1;html=1;whiteSpace=wrap;" parent="1" vertex="1">
          <mxGeometry x="380" y="140" width="120" height="80" as="geometry" />
        </mxCell>
        <mxCell id="v99Gg7eSHK0nsumkTFYq-11" value="" style="edgeStyle=orthogonalEdgeStyle;rounded=0;orthogonalLoop=1;jettySize=auto;html=1;" parent="1" source="v99Gg7eSHK0nsumkTFYq-8" target="v99Gg7eSHK0nsumkTFYq-10" edge="1">
          <mxGeometry relative="1" as="geometry" />
        </mxCell>
        <mxCell id="v99Gg7eSHK0nsumkTFYq-8" value="&lt;div&gt;提取人脸&lt;/div&gt;" style="shape=ext;rounded=1;html=1;whiteSpace=wrap;" parent="1" vertex="1">
          <mxGeometry x="580" y="140" width="120" height="80" as="geometry" />
        </mxCell>
        <mxCell id="v99Gg7eSHK0nsumkTFYq-13" style="edgeStyle=orthogonalEdgeStyle;rounded=0;orthogonalLoop=1;jettySize=auto;html=1;entryX=1;entryY=0.5;entryDx=0;entryDy=0;" parent="1" source="v99Gg7eSHK0nsumkTFYq-10" target="v99Gg7eSHK0nsumkTFYq-12" edge="1">
          <mxGeometry relative="1" as="geometry" />
        </mxCell>
        <mxCell id="v99Gg7eSHK0nsumkTFYq-10" value="人脸评分" style="shape=ext;rounded=1;html=1;whiteSpace=wrap;" parent="1" vertex="1">
          <mxGeometry x="580" y="300" width="120" height="80" as="geometry" />
        </mxCell>
        <mxCell id="v99Gg7eSHK0nsumkTFYq-15" style="edgeStyle=orthogonalEdgeStyle;rounded=0;orthogonalLoop=1;jettySize=auto;html=1;entryX=1;entryY=0.5;entryDx=0;entryDy=0;" parent="1" source="v99Gg7eSHK0nsumkTFYq-12" target="v99Gg7eSHK0nsumkTFYq-14" edge="1">
          <mxGeometry relative="1" as="geometry" />
        </mxCell>
        <mxCell id="v99Gg7eSHK0nsumkTFYq-19" value="Y" style="edgeLabel;html=1;align=center;verticalAlign=middle;resizable=0;points=[];" parent="v99Gg7eSHK0nsumkTFYq-15" vertex="1" connectable="0">
          <mxGeometry x="-0.24" relative="1" as="geometry">
            <mxPoint as="offset" />
          </mxGeometry>
        </mxCell>
        <mxCell id="v99Gg7eSHK0nsumkTFYq-17" style="edgeStyle=orthogonalEdgeStyle;rounded=0;orthogonalLoop=1;jettySize=auto;html=1;entryX=0.5;entryY=1;entryDx=0;entryDy=0;" parent="1" source="v99Gg7eSHK0nsumkTFYq-12" target="v99Gg7eSHK0nsumkTFYq-3" edge="1">
          <mxGeometry relative="1" as="geometry">
            <Array as="points">
              <mxPoint x="505" y="265" />
              <mxPoint x="240" y="265" />
            </Array>
          </mxGeometry>
        </mxCell>
        <mxCell id="v99Gg7eSHK0nsumkTFYq-18" value="N" style="edgeLabel;html=1;align=center;verticalAlign=middle;resizable=0;points=[];" parent="v99Gg7eSHK0nsumkTFYq-17" vertex="1" connectable="0">
          <mxGeometry x="-0.8056" relative="1" as="geometry">
            <mxPoint as="offset" />
          </mxGeometry>
        </mxCell>
        <mxCell id="v99Gg7eSHK0nsumkTFYq-12" value="高于85分？" style="shape=mxgraph.bpmn.shape;html=1;verticalLabelPosition=bottom;labelBackgroundColor=#ffffff;verticalAlign=top;align=center;perimeter=rhombusPerimeter;background=gateway;outlineConnect=0;outline=none;symbol=exclusiveGw;" parent="1" vertex="1">
          <mxGeometry x="480" y="315" width="50" height="50" as="geometry" />
        </mxCell>
        <mxCell id="v99Gg7eSHK0nsumkTFYq-21" style="edgeStyle=orthogonalEdgeStyle;rounded=0;orthogonalLoop=1;jettySize=auto;html=1;entryX=1;entryY=0.5;entryDx=0;entryDy=0;" parent="1" source="v99Gg7eSHK0nsumkTFYq-14" target="v99Gg7eSHK0nsumkTFYq-20" edge="1">
          <mxGeometry relative="1" as="geometry" />
        </mxCell>
        <mxCell id="v99Gg7eSHK0nsumkTFYq-14" value="人脸比对" style="shape=ext;rounded=1;html=1;whiteSpace=wrap;" parent="1" vertex="1">
          <mxGeometry x="310" y="300" width="120" height="80" as="geometry" />
        </mxCell>
        <mxCell id="v99Gg7eSHK0nsumkTFYq-16" value="人员进入现场" style="shape=umlActor;verticalLabelPosition=bottom;labelBackgroundColor=#ffffff;verticalAlign=top;html=1;outlineConnect=0;" parent="1" vertex="1">
          <mxGeometry x="80" y="150" width="30" height="60" as="geometry" />
        </mxCell>
        <mxCell id="v99Gg7eSHK0nsumkTFYq-20" value="结果应用" style="shape=mxgraph.bpmn.shape;html=1;verticalLabelPosition=bottom;labelBackgroundColor=#ffffff;verticalAlign=top;align=center;perimeter=ellipsePerimeter;outlineConnect=0;outline=standard;symbol=conditional;" parent="1" vertex="1">
          <mxGeometry x="190" y="315" width="50" height="50" as="geometry" />
        </mxCell>
        <mxCell id="v99Gg7eSHK0nsumkTFYq-22" value="" style="shape=plus;html=1;outlineConnect=0;" parent="1" vertex="1">
          <mxGeometry x="363" y="365" width="14" height="14" as="geometry" />
        </mxCell>
      </root>
    </mxGraphModel>
  </diagram>
</mxfile>
